<svg width="24" height="26" viewBox="0 0 24 26" fill="none" xmlns="http://www.w3.org/2000/svg">
<g clip-path="url(#clip0_297083_8311)" filter="url(#filter0_d_297083_8311)">
<path d="M18 6H6C5.175 6 4.5075 6.675 4.5075 7.5L4.5 16.5C4.5 17.325 5.175 18 6 18H18C18.825 18 19.5 17.325 19.5 16.5V7.5C19.5 6.675 18.825 6 18 6ZM17.7 9.1875L12.3975 12.5025C12.1575 12.6525 11.8425 12.6525 11.6025 12.5025L6.3 9.1875C6.1125 9.0675 6 8.865 6 8.6475C6 8.145 6.5475 7.845 6.975 8.1075L12 11.25L17.025 8.1075C17.4525 7.845 18 8.145 18 8.6475C18 8.865 17.8875 9.0675 17.7 9.1875Z" fill="#2E2F42"/>
</g>
<defs>
<filter id="filter0_d_297083_8311" x="-1" y="0" width="26" height="32" filterUnits="userSpaceOnUse" color-interpolation-filters="sRGB">
<feFlood flood-opacity="0" result="BackgroundImageFix"/>
<feColorMatrix in="SourceAlpha" type="matrix" values="0 0 0 0 0 0 0 0 0 0 0 0 0 0 0 0 0 0 127 0" result="hardAlpha"/>
<feOffset dy="4"/>
<feGaussianBlur stdDeviation="2"/>
<feComposite in2="hardAlpha" operator="out"/>
<feColorMatrix type="matrix" values="0 0 0 0 0 0 0 0 0 0 0 0 0 0 0 0 0 0 0.25 0"/>
<feBlend mode="normal" in2="BackgroundImageFix" result="effect1_dropShadow_297083_8311"/>
<feBlend mode="normal" in="SourceGraphic" in2="effect1_dropShadow_297083_8311" result="shape"/>
</filter>
<clipPath id="clip0_297083_8311">
<rect width="18" height="24" fill="white" transform="translate(3)"/>
</clipPath>
</defs>
</svg>
